<svg width="30.000000" height="30.000000" viewBox="0 0 30 30" fill="none" xmlns="http://www.w3.org/2000/svg" xmlns:xlink="http://www.w3.org/1999/xlink">
	<desc>
			Created with Pixso.
	</desc>
	<defs/>
	<rect id="iconfinder_shopping-cart_2561279 1" width="29.000000" height="29.000000" fill="#FFFFFF" fill-opacity="0"/>
	<path id="Vector" d="M9.66 27.79C8.33 27.79 7.25 26.7 7.25 25.37C7.25 24.04 8.33 22.95 9.66 22.95C11 22.95 12.08 24.04 12.08 25.37C12.08 26.7 11 27.79 9.66 27.79Z" stroke="#3F3F3F" stroke-opacity="1.000000" stroke-width="2.800000" stroke-linejoin="round"/>
	<path id="Vector" d="M24.16 27.79C22.83 27.79 21.75 26.7 21.75 25.37C21.75 24.04 22.83 22.95 24.16 22.95C25.5 22.95 26.58 24.04 26.58 25.37C26.58 26.7 25.5 27.79 24.16 27.79Z" stroke="#3F3F3F" stroke-opacity="1.000000" stroke-width="2.800000" stroke-linejoin="round"/>
	<path id="Vector" d="M6.85 7.25L27.79 7.25L25.76 17.38C25.65 17.94 25.34 18.44 24.9 18.79C24.46 19.15 23.91 19.34 23.34 19.33L10.57 19.33C9.98 19.33 9.41 19.12 8.96 18.74C8.52 18.35 8.23 17.81 8.15 17.23L6.31 3.31C6.24 2.72 5.95 2.19 5.51 1.8C5.07 1.42 4.51 1.2 3.92 1.2L1.2 1.2" stroke="#3F3F3F" stroke-opacity="1.000000" stroke-width="2.800000" stroke-linejoin="round" stroke-linecap="round"/>
</svg>
