<svg width="17.000000" height="17.000000" viewBox="0 0 17 17" fill="none" xmlns="http://www.w3.org/2000/svg" xmlns:xlink="http://www.w3.org/1999/xlink">
	<desc>
			Created with Pixso.
	</desc>
	<defs/>
	<rect id="iconfinder_shopping-cart_2561279 1" width="16.000000" height="16.000000" fill="#FFFFFF" fill-opacity="0"/>
	<path id="Vector" d="M5.33 15.33C4.59 15.33 4 14.73 4 14C4 13.26 4.59 12.66 5.33 12.66C6.06 12.66 6.66 13.26 6.66 14C6.66 14.73 6.06 15.33 5.33 15.33Z" stroke="#FFFFFF" stroke-opacity="1.000000" stroke-width="1.800000" stroke-linejoin="round"/>
	<path id="Vector" d="M13.33 15.33C12.59 15.33 12 14.73 12 14C12 13.26 12.59 12.66 13.33 12.66C14.06 12.66 14.66 13.26 14.66 14C14.66 14.73 14.06 15.33 13.33 15.33Z" stroke="#FFFFFF" stroke-opacity="1.000000" stroke-width="1.800000" stroke-linejoin="round"/>
	<path id="Vector" d="M3.77 4L15.33 4L14.21 9.59C14.15 9.9 13.98 10.17 13.74 10.37C13.49 10.56 13.19 10.67 12.87 10.66L5.83 10.66C5.5 10.66 5.19 10.55 4.94 10.33C4.7 10.12 4.54 9.82 4.49 9.5L3.48 1.82C3.44 1.5 3.28 1.21 3.04 0.99C2.8 0.78 2.48 0.66 2.16 0.66L0.66 0.66" stroke="#FFFFFF" stroke-opacity="1.000000" stroke-width="1.800000" stroke-linejoin="round" stroke-linecap="round"/>
</svg>
